<?xml version="1.0" encoding="UTF-8"?>
<!-- Generator: Adobe Illustrator 18.1.0, SVG Export Plug-In . SVG Version: 6.00 Build 0)  -->
<svg version="1.1" id="Artwork" xmlns="http://www.w3.org/2000/svg" xmlns:xlink="http://www.w3.org/1999/xlink" x="0px" y="0px" width="144px" height="144px" viewBox="-233 325 144 144" enable-background="new -233 325 144 144" xml:space="preserve">
<circle display="none" fill="#E32C26" cx="-161" cy="397" r="72"/>
<circle fill="#424142" cx="-161" cy="397" r="0.8"/>
<g>
	<path fill="#FFFFFF" d="M-187.9,387.7c-4.8,0.1-8.7-3.7-8.8-8.5c-0.1-4.8,3.7-8.7,8.5-8.8s8.7,3.7,8.8,8.5   C-179.3,383.6-183.2,387.6-187.9,387.7"/>
	<path fill="#FFFFFF" d="M-178.7,431.9c-2.6,0-7.3-1.3-9.6-6l-12.2-24.9c-1.2-2.4-0.2-5.3,2.2-6.5c2.4-1.2,5.3-0.2,6.5,2.2l12.2,25   c0.2,0.4,0.8,0.5,0.8,0.5l0,0l25.2-0.4c2.7,0,4.9,2.1,4.9,4.8c0,2.7-2.1,4.9-4.8,5l-25.2,0.4C-178.6,431.9-178.7,431.9-178.7,431.9   z"/>
	<path fill="#FFFFFF" d="M-133.6,379.8v-3.4h-1.9v3.4h-4.5v-3.4h-1.4c-1.2,0-2.2-1-2.2-2.2v-20.3c0-1.2,1-2.2,2.2-2.2h3.6   c0-0.2,0-0.3,0-0.5c0-1.8,1.4-3.2,3.2-3.2c1.8,0,3.2,1.4,3.2,3.2c0,0.2,0,0.3,0,0.5h3.6c1.2,0,2.2,1,2.2,2.2v20.2   c0,1.2-1,2.2-2.2,2.2h-1.1v3.4L-133.6,379.8L-133.6,379.8z M-130.3,378.5v-3.4h2.4c0.5,0,1-0.4,1-1v-20.2c0-0.5-0.4-1-1-1h-5.4   l0.4-0.9c0.1-0.3,0.2-0.5,0.2-0.8c0-1.1-0.9-2-2-2c-1.1,0-2,0.9-2,2c0,0.3,0.1,0.6,0.2,0.8l0.4,0.9h-5.4c-0.5,0-1,0.4-1,1v20.2   c0,0.5,0.4,1,1,1h2.7v3.4h2.1v-3.4h4.4v3.4H-130.3z"/>
	<path fill="#FFFFFF" d="M-129.3,379.6h-4.1v-3.4h-2.3v3.4h-4.1v-3.4h-1.6c-1.1,0-2-0.9-2-2v-20.3c0-1.1,0.9-2,2-2h3.9   c-0.1-0.2-0.1-0.5-0.1-0.7c0-1.7,1.3-3,3-3c1.6,0,3,1.3,3,3c0,0.2,0,0.5-0.1,0.7h3.9c1.1,0,2,0.9,2,2v20.2c0,1.1-0.9,2-2,2h-1.3   v3.5H-129.3z M-132.6,378.7h2.5v-3.4h2.2c0.6,0,1.2-0.5,1.2-1.2v-20.2c0-0.7-0.5-1.2-1.2-1.2h-5.1l0.3-0.6c0.1-0.3,0.2-0.6,0.2-0.9   c0-1.2-1-2.2-2.2-2.2s-2.2,1-2.2,2.2c0,0.3,0.1,0.6,0.2,0.9l0.3,0.6h-5.1c-0.6,0-1.2,0.5-1.2,1.2v20.2c0,0.6,0.5,1.2,1.2,1.2h2.5   v3.4h2.5v-3.4h4v3.4H-132.6z"/>
	<path fill="#FFFFFF" d="M-141.6,361.9v9.1c0,0-0.2,2.2,0.9,2.2h12.2c0,0,0.7,0.3,0.7-1.9v-9.5h-13.8V361.9z"/>
	<path fill="#FFFFFF" d="M-165,390.1v8.1c0,0.5-0.3,0.7-0.5,0.8h10.1l0,0c2.7,0,4.9-2.2,4.9-4.9c0-2.7-2.2-4.9-4.9-4.9h-10.4   C-165,389.4-165,390.1-165,390.1z"/>
	<path fill="#FFFFFF" d="M-123.6,415.1l-21-11.3c-4.8-2.6-9.8-1.4-10.4-1.2l-11.3,3.1c-0.5,0.1-1-0.3-1.1-0.4l-5.4-6.3h4.6   c-0.5-0.2-0.5-0.8-0.5-0.8v-8.1c0-0.6,0.5-0.8,0.7-0.8h-15.3l0,0c-1.5,0-2.9,0.7-3.8,1.9c-2.2,1.2-3.1,3.9-2.1,6.2l7.5,17   c2.2,5,7.1,6.3,9.7,6.2l20.8-0.4l0,0c0.9,0,1.7,0.8,1.8,1l16.1,22.8c0.9,1.3,2.4,2.1,4,2.1c1,0,2-0.3,2.8-0.9   c2.2-1.6,2.7-4.6,1.2-6.8l-15-21.2l12.2,6.6c0.7,0.4,1.5,0.6,2.3,0.6c1.7,0,3.4-0.9,4.3-2.6C-120.3,419.4-121.2,416.4-123.6,415.1z   "/>
	<path fill="#FFFFFF" d="M-168.7,390.1V390c-0.2,0.1-0.3,0.1-0.3,0.1l0.2,0.5c0,0,0,0,0.1,0C-168.7,390.6-168.7,390.1-168.7,390.1z"/>
	<path fill="#FFFFFF" d="M-143.1,365.6c-0.3,0-0.6,0-0.9,0c-3.7,0-12.4,1.2-14.9,12.3c-1.3,5.7-5.3,8.8-7.6,10.2l-2.1,1.2h3.4h0.2   l0.1-0.1c2.9-1.9,6.5-5.3,7.8-11c2.1-9.4,9-10.8,12.9-10.8c0.4,0,0.8,0,1.1,0V365.6z"/>
</g>
</svg>