<?xml version="1.0" encoding="UTF-8"?>
<!-- Generator: Adobe Illustrator 18.1.0, SVG Export Plug-In . SVG Version: 6.00 Build 0)  -->
<svg version="1.1" id="Artwork" xmlns="http://www.w3.org/2000/svg" xmlns:xlink="http://www.w3.org/1999/xlink" x="0px" y="0px" width="144px" height="144px" viewBox="-233 325 144 144" enable-background="new -233 325 144 144" xml:space="preserve">
<circle display="none" fill="#E32C26" cx="-161" cy="397" r="72"/>
<g>
	<g>
		<g>
			<path fill="#FFFFFF" d="M-196.3,432.4c-0.2,0-0.4-0.1-0.4-0.3l-8.4-43.5c0-0.1,0-0.2,0.1-0.3c0.1-0.1,0.2-0.1,0.3-0.1h20.7     c0.2,0,0.4,0.2,0.4,0.4V432c0,0.2-0.2,0.4-0.4,0.4H-196.3z"/>
		</g>
		<g>
			<path fill="#FFFFFF" d="M-184,388.5V432h-12.3l-8.4-43.5H-184 M-184,387.7h-20.7c-0.2,0-0.5,0.1-0.6,0.3     c-0.2,0.2-0.2,0.4-0.2,0.6l8.4,43.5c0.1,0.4,0.4,0.6,0.8,0.6h12.3c0.4,0,0.8-0.4,0.8-0.8v-43.4C-183.2,388-183.6,387.7-184,387.7     L-184,387.7z"/>
		</g>
	</g>
	<g>
		<g>
			<path fill="#FFFFFF" d="M-162.8,432.6c-0.4,0-4.2-0.2-12.3-5.7l0,0c-0.1,0-0.7-0.1-2.8-0.1c-0.1,0-0.2,0-0.3-0.1     c-0.1-0.1-0.1-0.2-0.1-0.3v-32.6c0-0.1,0.1-0.2,0.1-0.3c0.1-0.1,0.2-0.1,0.3-0.1c0,0,0,0,0.1,0c0,0,1,0.2,2.3,0.2     c2.1,0,4.9-0.4,6-2.3l10-16.2c0.1-0.2,0.3-0.4,0.3-0.5l-0.3-8.7c0-0.1,0.4-4.3,4.8-4.5l0,0c0,0,0.1,0,0.2,0c1,0,9.6,0.4,9.9,13     c0,0.1-0.1,5.5-2.2,11.7c-0.1,0.5-0.3,2,0.2,2.7c0.2,0.2,0.4,0.3,0.8,0.3l25.3,0.5h0.1c0,0,3.7,1.1,3.7,5.5c0,0.1-0.1,5.7-5.9,6     c0.3,0.2,2.1,1.7,2.1,5.1l0,0c0,0,0.6,4.4-5.1,5.7c0.8,0.3,2.7,1.2,2.6,4.3c0,0.1,0.1,2.3-1.5,4c-1.1,1.1-2.6,1.7-4.6,1.8     c0.5,0.3,2.3,1.6,2.3,5c0,0.1,0,2.8-1.7,4.4c-0.8,0.8-1.9,1.2-3.2,1.2H-162.8z"/>
		</g>
		<g>
			<path fill="#FFFFFF" d="M-154.7,361.8c1.3,0,9.2,0.5,9.5,12.7c0,0,0,5.4-2.2,11.5c0,0-0.9,3.6,1.4,3.6l25.3,0.5     c0,0,3.4,1,3.4,5.1c0,0,0,5.4-5.8,5.7c0,0-0.8,0.2,0,0.7c0,0,2,1.3,2,4.7c0,0,0.6,4.3-5.2,5.4c0,0-0.9,0.2,0,0.6     c0,0,2.7,0.4,2.7,4c0,0,0.3,5.4-6.1,5.4c0,0-0.9,0.2,0,0.7c0,0,2.2,1.1,2.2,4.8c0,0,0,5.2-4.5,5.2h-30.8l0,0     c-0.2,0-4-0.1-12.1-5.6c0,0,0-0.2-3-0.2v-32.8c0,0,1,0.2,2.3,0.2c2.1,0,5.1-0.4,6.3-2.5l10-16.2c0,0,0.3-0.4,0.3-0.7l-0.3-8.7     c0,0,0.4-3.9,4.4-4.1C-154.8,361.8-154.8,361.8-154.7,361.8 M-154.7,361c-0.1,0-0.2,0-0.2,0c-3.7,0.2-5,3.3-5.1,4.9v0.1l0.3,8.6     c0,0.1-0.1,0.2-0.1,0.2s0,0.1-0.1,0.1l-10,16.1c-1.1,1.9-4,2.1-5.6,2.1c-1.2,0-2.2-0.1-2.2-0.2h-0.1c-0.2,0-0.4,0.1-0.5,0.2     c-0.2,0.1-0.3,0.4-0.3,0.6v32.6c0,0.4,0.4,0.8,0.8,0.8c1.8,0,2.4,0.1,2.6,0.1c8.2,5.6,12.1,5.7,12.5,5.7h30.7     c1.4,0,2.6-0.5,3.5-1.3c1.8-1.7,1.8-4.6,1.8-4.7c0-2.5-0.9-3.9-1.7-4.7c1.6-0.2,3-0.8,3.9-1.8c1.7-1.7,1.7-4,1.7-4.3     c0-2.2-0.9-3.5-1.9-4.2c4.6-1.5,4.5-5.2,4.4-5.8c0-2.5-1-4-1.6-4.7c4.2-0.7,5.4-4.4,5.4-6.3c0-3.7-2.6-5.5-4-5.8     c-0.1,0-0.1,0-0.2,0l-25.3-0.6c-0.3,0-0.4-0.1-0.5-0.2c-0.4-0.4-0.3-1.7-0.1-2.4c2.2-6.2,2.2-11.5,2.2-11.7     C-144.7,361.4-153.7,361-154.7,361L-154.7,361z"/>
		</g>
	</g>
</g>
</svg>