<?xml version="1.0" encoding="UTF-8"?>
<!-- Generator: Adobe Illustrator 18.1.0, SVG Export Plug-In . SVG Version: 6.00 Build 0)  -->
<svg version="1.1" id="Artwork" xmlns="http://www.w3.org/2000/svg" xmlns:xlink="http://www.w3.org/1999/xlink" x="0px" y="0px" width="144px" height="144px" viewBox="-233 325 144 144" enable-background="new -233 325 144 144" xml:space="preserve">
<circle display="none" fill="#E32C26" cx="-161" cy="397" r="72"/>
<path fill="#FFFFFF" d="M-133.7,385.9c-3.9-5.7-2.3-12.9-2.3-12.9c0.7-1.5-0.3-4.1-0.3-4.1c-0.7-3.7-5.9-9.2-5.9-9.2  c-17.4-17.2-38.5-5-38.5-5c-21.9,10.9-11.1,35.1-11.1,35.1c3.4,5.5,7.7,17.9,7.7,17.9c2.8,13.3-7.2,35.8-7.2,35.8h42.1  c-1.7-23.2,5-22.7,5-22.7c1.3,0,8-1.5,8-1.5c2-0.4,6.1-3.1,3.9-6.1c-2.2-3,0-4.6,0-4.6c1.7-2.2-0.6-3-0.6-3c1.5-0.6,1.5-3,1.5-3  c-1.7-5,0.7-5.7,0.7-5.7c3.3-0.7,3.2-2.2,3.2-2.2C-126.7,393.3-133.7,385.9-133.7,385.9z M-145,374.9c0,0,3.3,4.5-10.7,5.5  c0,0,3.2,4.4-5.3,6.3c0,0-4.6-0.6-6.7,10.3h-2.3l-1.3-5c0,0-2.4,3.6-6.4,2.1c0,0-3.2-1.2-2.9-5.7c0,0-6.7,2.4-6-4.6  c0,0-7.6-6.3-0.4-13.8c0,0-2.4-3.1,2-5.5c0,0-1-3.1,3.1-3.1c0,0,1.5-4,5.6-2.5c0,0,1.4-3.8,5.5-2.2c0,0,4.1-3,7.4,0.3  c0,0,4.1-2.9,6.9,1.3c0,0,5.3-1.6,7.1,3.2c0,0,4.1,0.2,3.3,3c0,0,4.6,2,4.3,6.6C-141.9,371.2-141.8,374.6-145,374.9z"/>
</svg>